<svg width="86" height="69" viewBox="0 0 86 69" fill="none" xmlns="http://www.w3.org/2000/svg">
<path d="M43.9111 11.06C40.2667 3.12007 33.8889 1.73659 31.1556 2.03735H11.1111V9.25512M43.9111 11.06V64.2932M43.9111 11.06C47.5556 3.84215 53.9333 2.03746 56.6667 2.03735H76.7111V9.25512M43.9111 64.2932V67M43.9111 64.2932H42.2627M43.9111 64.2932H45.6157M43.9111 67C43.5595 66.234 43.0093 65.2907 42.2627 64.2932M43.9111 67C44.4579 66.0072 45.0294 65.1075 45.6157 64.2932M42.2627 64.2932C39.7848 60.9825 35.1438 57.0751 28.4222 57.0751H11.1111V9.25512M42.2627 64.2932H2V9.25512H11.1111M45.6157 64.2932H84V9.25512H76.7111M45.6157 64.2932C49.7179 58.5947 54.5408 57.0751 56.6667 57.0751H76.7111V9.25512M17.4889 20.9845H35.7111M51.2 20.0823H69.4222M18.4 30.9094H36.6222M52.1111 30.0072H70.3333M18.4 41.7366H36.6222M52.1111 40.8344H70.3333" stroke="#2E3192" stroke-width="4" stroke-linejoin="round"/>
</svg>
