<svg width="63" height="64" viewBox="0 0 63 64" fill="none" xmlns="http://www.w3.org/2000/svg">
<path d="M60.5 33.0012H2C2 50.2012 12.6667 56.5012 18 57.5012H45.5C59.1 51.5012 61.1667 38.6679 60.5 33.0012Z" stroke="#2E3192" stroke-width="4"/>
<path d="M3.1652 32.9963C2.83793 30.6431 2.67306 28.8 2.50942 27.2359C2.45192 26.6863 2.67306 26.1818 2.75426 25.6781C2.95315 24.4444 4.6973 23.4461 5.86831 23.4461C8.24659 23.4461 7.67325 22.897 8.24659 22.6054C9.95798 21.7349 8.24659 15.9095 11 12.5012C14.556 8.09941 18.7871 12.4644 19.7726 11.9998C21.8497 12.9227 20.3066 8.34389 21.0842 6.61818C21.6538 5.35388 22.0145 4.21322 23 3.58075C24.1377 2.85065 26.6048 1.96211 28 2.00125C29.86 2.05342 32.4387 2.35748 34 3.58075C34.9503 4.32529 37.0194 6.90348 37.5 6.90348C40.5 6.90348 42.0397 6.57147 43.8828 6.90348C45.6867 7.22844 47.2416 8.80959 48.36 10.5012C49.0827 11.5942 48.4425 14.7216 48.36 15.9095C48.3008 16.763 50.6975 15.9537 52.5 15.9095C53.95 15.874 54.869 17.1993 55.0446 19.106C55.127 20.0012 55.3325 21.1245 55.127 22.1357C54.8184 23.6546 58.3542 23.816 59.7175 25.3738C60.0866 26.0883 60.3351 26.765 60.4582 28.2698C60.5 29.4413 59.7175 30.936 59.7175 32.9963" stroke="#2E3192" stroke-width="3" stroke-linecap="round"/>
<path d="M20.75 24.5012C22.565 24.5837 24.38 24.6662 25.5212 24.6675C26.6625 24.6687 27.075 24.5862 27.75 24.5012" stroke="#2E3192" stroke-width="2" stroke-linecap="round"/>
<path d="M35.75 19.2512H41.25" stroke="#2E3192" stroke-width="2" stroke-linecap="round"/>
<rect x="18" y="57.5012" width="28" height="6" rx="2" fill="#2E3192"/>
</svg>
