<svg width="65" height="57" viewBox="0 0 65 57" fill="none" xmlns="http://www.w3.org/2000/svg">
<path d="M44.2065 34.4813H36.0692V42.6187H31.7971V34.4813H23.6597V30.314H31.7971V22.1766H36.0692V30.314H44.2065V34.4813Z" fill="#2E3192"/>
<path d="M58.7171 50.8675V56.3667H6.47477V50.8675H58.7171ZM24.3471 5.49919V10.9984H40.8447V5.49919H24.3471ZM46.3439 10.9984H58.7171C61.7542 10.9984 64.2163 13.4604 64.2163 16.4976V50.8675C64.2163 53.9046 61.7542 56.3667 58.7171 56.3667V16.4976H40.8447H24.3471H6.47477V56.3667L6.19149 56.36C3.28601 56.2126 0.975586 53.8096 0.975586 50.8675V16.4976C0.975586 13.4604 3.43766 10.9984 6.47477 10.9984H18.8479V5.49919C18.8479 2.46207 21.31 0 24.3471 0H40.8447C43.8818 0 46.3439 2.46207 46.3439 5.49919V10.9984Z" fill="#2E3192"/>
</svg>
