<svg width="92" height="98" viewBox="0 0 92 98" fill="none" xmlns="http://www.w3.org/2000/svg">
<circle cx="41.1338" cy="17.3944" r="14.8944" stroke="#2E3192" stroke-width="5"/>
<path d="M21.1406 68.3013V94.9996H3V62.2335C3.40312 55.7612 7.59561 42.8165 21.1406 42.8165C34.6855 42.8165 49.9253 42.8165 59.1972 42.8165C63.2113 42.8166 71.9084 44.8236 71.9084 51.8482" stroke="#2E3192" stroke-width="5"/>
<path d="M62.4828 57.5753C60.0446 52.2634 55.7778 51.3378 53.9491 51.539H40.5391V56.3678M62.4828 57.5753V93.1891M62.4828 57.5753C64.921 52.7465 69.1878 51.5391 71.0164 51.539H84.4264V56.3678M62.4828 93.1891V95M62.4828 93.1891H61.38M62.4828 93.1891H63.6232M62.4828 95C62.2476 94.4875 61.8795 93.8564 61.38 93.1891M62.4828 95C62.8486 94.3358 63.231 93.7339 63.6232 93.1891M61.38 93.1891C59.7222 90.9742 56.6173 88.3601 52.1205 88.3601H40.5391V56.3678M61.38 93.1891H34.4437V56.3678H40.5391M63.6232 93.1891H89.3028V56.3678H84.4264M63.6232 93.1891C66.3676 89.3767 69.5942 88.3601 71.0164 88.3601H84.4264V56.3678M44.8059 64.215H56.9969M67.3592 63.6113H79.5501M45.4155 70.8549H57.6064M67.9687 70.2512H80.1596M45.4155 78.0984H57.6064M67.9687 77.4948H80.1596" stroke="#2E3192" stroke-width="4" stroke-linejoin="round"/>
</svg>
