<svg width="71" height="91" viewBox="0 0 71 91" fill="none" xmlns="http://www.w3.org/2000/svg">
<path d="M61.6904 0.75H9.41992C7.17251 0.755282 5.01885 1.65046 3.42969 3.23962C1.84052 4.82879 0.945712 6.98257 0.94043 9.22998V77C0.958494 78.2011 1.44356 79.348 2.29297 80.1974C3.14237 81.0468 4.28913 81.532 5.49023 81.55H5.55957V87.65C5.55957 88.4784 5.8888 89.273 6.47363 89.8597C7.05846 90.4464 7.85129 90.7774 8.67969 90.78H16.2803C17.1087 90.7774 17.9015 90.4464 18.4863 89.8597C19.0712 89.273 19.4004 88.4784 19.4004 87.65V81.55H51.71V87.65C51.7126 88.4793 52.0435 89.2739 52.6299 89.8604C53.2163 90.4468 54.0105 90.7774 54.8398 90.78H62.4297C63.2582 90.7748 64.0518 90.4433 64.6377 89.8574C65.2235 89.2716 65.5543 88.4785 65.5596 87.65V81.55H65.6299C66.8292 81.5294 67.974 81.0431 68.8213 80.194C69.6686 79.3448 70.1519 78.1994 70.1699 77V9.26001C70.1726 8.14425 69.9551 7.03891 69.5303 6.0072C69.1054 4.97549 68.4819 4.03767 67.6943 3.24731C66.9068 2.45696 65.9706 1.8295 64.9404 1.401C63.9102 0.9725 62.8062 0.751311 61.6904 0.75ZM66.4297 75.5601C66.4297 75.8406 66.3743 76.1184 66.2666 76.3774C66.1589 76.6365 66.0016 76.8718 65.8027 77.0697C65.6039 77.2676 65.368 77.4243 65.1084 77.5308C64.8488 77.6372 64.5706 77.6913 64.29 77.6899H6.87012C6.30521 77.6899 5.76371 77.4656 5.36426 77.0662C4.96481 76.6667 4.74023 76.125 4.74023 75.5601V46.9H66.4297V75.5601ZM66.4297 44.5601H4.74023V18.02H66.4297V44.5601ZM66.4297 15.42H4.74023V9.66003C4.80008 8.15678 5.45337 6.73868 6.55762 5.71692C7.66187 4.69516 9.12651 4.15315 10.6299 4.20996H60.54C62.0427 4.15581 63.5057 4.69864 64.6094 5.71985C65.713 6.74106 66.3672 8.15769 66.4297 9.66003V15.42Z" fill="white"/>
</svg>
