<svg width="30" height="30" viewBox="0 0 30 30" fill="none" xmlns="http://www.w3.org/2000/svg">
<path d="M0 15C0 12.0333 0.879611 9.13319 2.52783 6.66646C4.17605 4.19972 6.51887 2.27714 9.25977 1.14183C12.0007 0.00651479 15.0166 -0.290556 17.9263 0.288222C20.836 0.867 23.5087 2.29563 25.6064 4.39342C27.7042 6.4912 29.1331 9.16394 29.7119 12.0737C30.2907 14.9834 29.9937 17.9994 28.8584 20.7403C27.7231 23.4812 25.8002 25.8238 23.3335 27.4721C20.8668 29.1203 17.9667 30 15 30C11.0218 30 7.2066 28.4197 4.39355 25.6066C1.58051 22.7936 0 18.9783 0 15ZM28.6899 15C28.6899 12.29 27.8862 9.64082 26.3804 7.38765C24.8746 5.13448 22.7344 3.37853 20.2305 2.3419C17.7265 1.30528 14.9713 1.03455 12.3135 1.56398C9.65566 2.09341 7.2149 3.39923 5.29932 5.31621C3.38374 7.23319 2.07973 9.67522 1.55225 12.3334C1.02476 14.9916 1.29748 17.7465 2.33594 20.2497C3.37439 22.7529 5.13147 24.8918 7.38574 26.396C9.64001 27.9002 12.29 28.702 15 28.7C18.6317 28.6974 22.1136 27.2528 24.6807 24.6839C27.2477 22.1149 28.6899 18.6317 28.6899 15ZM14.3398 5.22002H15.6499V15.65H7.81982V14.35H14.3398V5.22002Z" fill="white"/>
</svg>
