<svg width="110" height="91" viewBox="0 0 110 91" fill="none" xmlns="http://www.w3.org/2000/svg">
<path d="M106 0H4C3.01421 0.00263936 2.06913 0.395404 1.37207 1.09247C0.675006 1.78953 0.282913 2.73418 0.280273 3.71997V86.72C0.282913 87.7058 0.675006 88.6505 1.37207 89.3475C2.06913 90.0446 3.01421 90.4374 4 90.44H106C106.986 90.4374 107.931 90.0446 108.628 89.3475C109.325 88.6505 109.717 87.7058 109.72 86.72V3.71997C109.717 2.73418 109.325 1.78953 108.628 1.09247C107.931 0.395404 106.986 0.00263936 106 0ZM54 13.71V27.37H31.9404V13.7L54 13.71ZM58.21 48.38V29.46H80.2695V48.37L58.21 48.38ZM58.21 27.38V13.7H80.2695V27.36L58.21 27.38ZM29.8398 13.72V27.38H4.67969V13.7L29.8398 13.72ZM29.8398 29.48V48.39H4.67969V29.46L29.8398 29.48ZM29.8398 50.48V69.39H4.67969V50.47L29.8398 50.48ZM31.9404 50.48H54V69.39H31.9404V50.48ZM54 71.48V86.13H31.9404V71.49L54 71.48ZM58.21 71.48H80.2695V86.13H58.21V71.48ZM82.3701 50.48H105.43V69.39H82.3701V50.48ZM82.3701 48.38V29.46H105.43V48.37L82.3701 48.38ZM82.3701 27.38V13.7H105.43V27.36L82.3701 27.38ZM4.67969 82.44V71.49H29.8398V86.14H8.40039C7.90768 86.1466 7.41806 86.0553 6.96094 85.8713C6.50382 85.6874 6.08805 85.4144 5.7373 85.0683C5.38656 84.7222 5.10804 84.3098 4.91797 83.8552C4.7279 83.4006 4.62984 82.9127 4.62988 82.42L4.67969 82.44ZM101.68 86.16H82.3398V71.49H105.4V82.42C105.399 82.9098 105.301 83.3946 105.112 83.8467C104.924 84.2987 104.648 84.7091 104.301 85.0546C103.953 85.4 103.541 85.6737 103.088 85.8599C102.635 86.0462 102.15 86.1413 101.66 86.14L101.68 86.16Z" fill="white"/>
</svg>
